# xmcd
#
# Track frame offsets: 
#        150
#        18407
#        36782
#        50172
#        68185
#        82815
#        100825
#        114107
#        127952
#        143957
#        155080
#
# Disc length: 2282 seconds
#
# Revision: 7
# Processed by: cddbd v1.5.2PL0 Copyright (c) Steve Scherf et al.
# Submitted via: ExactAudioCopyFreeDBPlugin 1.0
#
DISCID=8c08e80b
DTITLE=John Hiatt - Crossing Muddy Waters
DYEAR=2000
DGENRE=Bluegrass
TTITLE0=Lincoln Town
TTITLE1=Crossing Muddy Waters
TTITLE2=What Do We Do Now
TTITLE3=Only The Song Survives
TTITLE4=Lift Up Every Stone
TTITLE5=Take It Down
TTITLE6=Gone
TTITLE7=Take It Back
TTITLE8=Mr. Stanley
TTITLE9=God's Golden Eyes
TTITLE10=Before I Go
EXTD=
EXTT0=
EXTT1=
EXTT2=
EXTT3=
EXTT4=
EXTT5=
EXTT6=
EXTT7=
EXTT8=
EXTT9=
EXTT10=
PLAYORDER=
